<svg width="8" height="8" viewBox="0 0 8 8" fill="none" xmlns="http://www.w3.org/2000/svg">
<g clip-path="url(#clip0_206_89)">
<path d="M7.56202 3.37594H7.56247H4.62498V0.443972C4.62498 0.202671 4.42959 0.000915527 4.18829 0.000915527H3.81242C3.57119 0.000915527 3.37496 0.202671 3.37496 0.443972V3.37594H0.437528C0.196358 3.37594 0 3.57106 0 3.81243V4.19044C0 4.43161 0.196293 4.62589 0.437528 4.62589H3.37502V7.56845C3.37502 7.80963 3.57119 8.00084 3.81249 8.00084H4.18836C4.42966 8.00084 4.62504 7.80956 4.62504 7.56845V4.62589H7.56202C7.80332 4.62589 8 4.43155 8 4.19044V3.81243C8 3.57106 7.80332 3.37594 7.56202 3.37594Z" fill="#191919"/>
</g>
<defs>
<clipPath id="clip0_206_89">
<rect width="8" height="8" fill="white"/>
</clipPath>
</defs>
</svg>
